<svg id="Layer_1" data-name="Layer 1" xmlns="http://www.w3.org/2000/svg" viewBox="0 0 1373.4 546.9">
  <defs>
    <style>
      .cls-1 {
        fill: none;
        stroke: #fff;
        stroke-linecap: round;
        stroke-miterlimit: 10;
        stroke-width: 5px;
      }

      .cls-2, .cls-3 {
        font-size: 24px;
        font-family: Georgia;
      }

      .cls-2, .cls-4 {
        font-style: italic;
      }

      .cls-5 {
        font-family: Brandon Grotesque;
      }

      .cls-6 {
        white-space: pre;
      }
    </style>
  </defs>
  <title>strat</title>
  <g id="_Group_" data-name="&lt;Group&gt;">
    <polygon id="_Path_" data-name="&lt;Path&gt;" points="83.7 308.5 103.8 308.5 205.9 251 281.4 251 301.5 239.7 205.9 239.7 83.7 308.5"/>
    <polygon id="_Path_2" data-name="&lt;Path&gt;" points="83.7 331.1 103.8 331.1 205.9 273.6 281.4 273.6 301.5 262.3 205.9 262.3 83.7 331.1"/>
    <polygon id="_Path_3" data-name="&lt;Path&gt;" points="205.9 137.9 281.4 137.9 301.5 126.6 205.9 126.6 83.7 195.4 103.8 195.4 205.9 137.9"/>
    <polygon id="_Path_4" data-name="&lt;Path&gt;" points="83.7 285.9 103.8 285.9 205.9 228.4 281.4 228.4 301.5 217.1 205.9 217.1 83.7 285.9"/>
    <polygon id="_Path_5" data-name="&lt;Path&gt;" points="83.7 218 103.8 218 205.9 160.5 281.4 160.5 301.5 149.2 205.9 149.2 83.7 218"/>
    <polygon id="_Path_6" data-name="&lt;Path&gt;" points="83.7 240.6 103.8 240.6 205.9 183.2 281.4 183.2 301.5 171.9 205.9 171.9 83.7 240.6"/>
    <polygon id="_Path_7" data-name="&lt;Path&gt;" points="83.7 263.3 103.8 263.3 205.9 205.8 281.4 205.8 301.5 194.5 205.9 194.5 83.7 263.3"/>
    <circle id="_Path_8" data-name="&lt;Path&gt;" cx="246.2" cy="46.7" r="46.7"/>
  </g>
  <g id="_Group_2" data-name="&lt;Group&gt;">
    <g id="_Group_3" data-name="&lt;Group&gt;">
      <line id="_Path_9" data-name="&lt;Path&gt;" y1="423.6" x2="385.8" y2="423.6"/>
      <path id="_Compound_Path_" data-name="&lt;Compound Path&gt;" d="M363.3,623.55a0.65,0.65,0,0,0,.6.6h18.8a0.65,0.65,0,0,0,.6-0.6v-0.8a0.65,0.65,0,0,0-.6-0.6H365.5v-13.9h14.9a0.65,0.65,0,0,0,.6-0.6v-0.8a0.65,0.65,0,0,0-.6-0.6H365.5v-13h17.2a0.65,0.65,0,0,0,.6-0.6v-0.8a0.65,0.65,0,0,0-.6-0.6H363.9a0.65,0.65,0,0,0-.6.6v31.7Zm-21.9,0a0.65,0.65,0,0,0,.6.6h0.8a0.71,0.71,0,0,0,.8-0.6v-30.2h9a0.58,0.58,0,0,0,.6-0.6v-0.8a0.58,0.58,0,0,0-.6-0.6H332.4a0.58,0.58,0,0,0-.6.6v0.7a0.56,0.56,0,0,0,.6.7h9v30.2h0Zm-36.3-10.3,8.2-18.9h0.1l8,18.9H305.1Zm-6.6,10.9h1.3a0.84,0.84,0,0,0,.7-0.4l3.8-8.6h17.9l3.8,8.6a0.72,0.72,0,0,0,.7.4h1.2c0.5,0,.5-0.3.4-0.6L314,590.95a0.54,0.54,0,0,0-.6-0.3h-0.1a0.71,0.71,0,0,0-.6.3l-14.5,32.7c-0.1.3,0,.5,0.3,0.5m-36.5-.6a0.65,0.65,0,0,0,.6.6h0.9a0.65,0.65,0,0,0,.6-0.6V595h0c22.3,29.5,22.7,29.6,22.7,29.6h0.6a0.7,0.7,0,0,0,.8-0.6v-32.1a0.65,0.65,0,0,0-.6-0.6h-0.9a0.65,0.65,0,0,0-.6.6v28.3h0l-22.5-29.3h-0.8a0.61,0.61,0,0,0-.7.6v32H262Zm-16.9,0a0.65,0.65,0,0,0,.6.6h1a0.66,0.66,0,0,0,.7-0.6v-31.6a0.65,0.65,0,0,0-.6-0.6h-1a0.65,0.65,0,0,0-.6.6v31.6h-0.1Zm-47.6,0c-0.1.5,0.1,0.6,0.5,0.6h1.1a0.63,0.63,0,0,0,.6-0.5l5.3-27.5h0.1l9.5,28.1a0.62,0.62,0,0,0,.6.4h0.2a0.67,0.67,0,0,0,.7-0.4l9.5-28.1h0.1l5.3,27.5a0.56,0.56,0,0,0,.6.5h1.1c0.4,0,.6-0.1.5-0.6l-6.7-32.4a0.35,0.35,0,0,0-.4-0.3h-0.5a0.55,0.55,0,0,0-.5.3l-9.7,28.8h-0.1l-9.7-28.8a0.46,0.46,0,0,0-.5-0.3h-0.5a0.35,0.35,0,0,0-.4.3Zm-36.3-11.4c0,7.2,4.8,12.4,12.3,12.4s12.3-5.3,12.3-12.4v-20.3a0.65,0.65,0,0,0-.6-0.6h-0.9a0.57,0.57,0,0,0-.7.6v20.1c0,6.1-3.8,10.5-10.1,10.5s-10-4.5-10-10.5v-20a0.65,0.65,0,0,0-.6-0.6h-1a0.65,0.65,0,0,0-.6.6v20.2h-0.1Zm-26.5,11.4a0.65,0.65,0,0,0,.6.6h16.6a0.56,0.56,0,0,0,.6-0.5v-0.9a0.49,0.49,0,0,0-.6-0.6h-15v-30.3a0.65,0.65,0,0,0-.6-0.6h-1a0.65,0.65,0,0,0-.6.6v31.7Zm-27.7,0a0.65,0.65,0,0,0,.6.6h16.6a0.56,0.56,0,0,0,.6-0.5v-0.9a0.49,0.49,0,0,0-.6-0.6h-15v-30.3a0.65,0.65,0,0,0-.6-0.6h-1a0.65,0.65,0,0,0-.6.6v31.7Zm-16.9,0a0.65,0.65,0,0,0,.6.6h1a0.66,0.66,0,0,0,.7-0.6v-31.6a0.65,0.65,0,0,0-.6-0.6h-1a0.65,0.65,0,0,0-.6.6v31.6H90.1Z" transform="translate(-46.6 -118.85)"/>
      <path id="_Compound_Path_2" data-name="&lt;Compound Path&gt;" d="M308,652.55a3.81,3.81,0,0,0-1.3,2.7,4.56,4.56,0,0,0,.6,2.2,8.62,8.62,0,0,0,1.4,1.8,11.51,11.51,0,0,1,1.4,1.7,3.23,3.23,0,0,1,.6,1.8,1.28,1.28,0,0,1-.4,1,1.66,1.66,0,0,1-1.2.5,2,2,0,0,1-1.4-.5,2.84,2.84,0,0,1-.9-1,0.89,0.89,0,0,0-1.6,0,1.69,1.69,0,0,0-.3,1,1.42,1.42,0,0,0,.2.6,3.7,3.7,0,0,0,2.9,1.2,4.86,4.86,0,0,0,3.3-1.1,3.47,3.47,0,0,0,1.3-2.9,4.56,4.56,0,0,0-.6-2.2,8.62,8.62,0,0,0-1.4-1.8,11.51,11.51,0,0,1-1.4-1.7,3.23,3.23,0,0,1-.6-1.8,1.28,1.28,0,0,1,.4-1,1.43,1.43,0,0,1,1.1-.5,2,2,0,0,1,1.4.5,2.84,2.84,0,0,1,.9,1,1,1,0,0,0,.8.5,0.91,0.91,0,0,0,.8-0.4,1.69,1.69,0,0,0,.3-1,2.54,2.54,0,0,0-.2-0.7,3.7,3.7,0,0,0-2.9-1.2,4.38,4.38,0,0,0-3.2,1.3m-16.1-.1a7.58,7.58,0,0,0-1.6,1.7,1.42,1.42,0,0,0,.2.4,1.24,1.24,0,0,0,.2.3,3.81,3.81,0,0,1,.5-0.6l0.4-.4a1.76,1.76,0,0,1,.5-0.4,0.76,0.76,0,0,1,.4-0.1c0.2,0,.3.3,0.3,0.8,0,0.1-.1.5-0.2,1.3l-1,4.5a17.23,17.23,0,0,0-.5,3.5c0,1.4.5,2.1,1.6,2.1a4.27,4.27,0,0,0,2.5-1.5,20.51,20.51,0,0,0,2.5-2.9,12.34,12.34,0,0,0,1.3-2l-0.6,3a6.63,6.63,0,0,0-.2,1.7,2.13,2.13,0,0,0,.3,1.2,1,1,0,0,0,.8.5,3.45,3.45,0,0,0,2.3-1.2,9.68,9.68,0,0,0,1.8-1.9,1.42,1.42,0,0,0-.2-0.4,1.24,1.24,0,0,0-.2-0.3l-0.2.2-0.4.4-0.5.5a2.09,2.09,0,0,1-.6.4,1.06,1.06,0,0,1-.5.2c-0.2,0-.3-0.3-0.3-0.8a2,2,0,0,1,.1-0.8l2-10.5a3.75,3.75,0,0,0-1.1-.1,3.08,3.08,0,0,0-1,.1l-0.6,2.5a13.23,13.23,0,0,1-1.2,3.5,14,14,0,0,1-1.8,3,12,12,0,0,1-1.8,2,2.76,2.76,0,0,1-1.3.8c-0.4,0-.6-0.5-0.6-1.4a14,14,0,0,1,.2-1.8l1.1-5.4a9.85,9.85,0,0,0,.2-1.7,2.13,2.13,0,0,0-.3-1.2,1,1,0,0,0-.8-0.5,12.45,12.45,0,0,0-1.7,1.3m-9.8,2a10.37,10.37,0,0,0-2.4,6.3,6.4,6.4,0,0,0,.9,3.6,2.93,2.93,0,0,0,2.6,1.3,4.47,4.47,0,0,0,2.7-1.1,9.68,9.68,0,0,0,1.8-1.9,1.42,1.42,0,0,0-.2-0.4,1.24,1.24,0,0,0-.2-0.3l-0.1.1a0.35,0.35,0,0,0-.1.2l-0.2.2-0.3.3a1.38,1.38,0,0,1-.4.3c-0.1.1-.3,0.2-0.4,0.3s-0.3.1-.5,0.2-0.3.1-.5,0.2-0.3.1-.5,0.1c-1.4,0-2.1-1.1-2.1-3.4a9.41,9.41,0,0,1,1.5-5.3c1-1.5,2-2.3,2.9-2.3a1.49,1.49,0,0,1,1.1.9,1.49,1.49,0,0,0,1.1.9,0.91,0.91,0,0,0,.8-0.4,1.69,1.69,0,0,0,.3-1,1.27,1.27,0,0,0-.1-0.6,4.51,4.51,0,0,0-2.8-1.1c-1.7-.2-3.3.8-4.9,2.9m-13.1-.1a9.89,9.89,0,0,0-2.3,6.4,5.34,5.34,0,0,0,1,3.6,3.84,3.84,0,0,0,3,1.3c1.6,0,3.3-1,4.8-3a10,10,0,0,0,2.4-6.3,5.82,5.82,0,0,0-1.1-3.7,3.54,3.54,0,0,0-3-1.3q-2.4,0-4.8,3m5.9-.7a7.2,7.2,0,0,1,.5,2.9,10.74,10.74,0,0,1-1.3,5.1c-0.8,1.7-1.8,2.5-2.9,2.5a1.68,1.68,0,0,1-1.5-1,6,6,0,0,1-.6-2.9,10.74,10.74,0,0,1,1.3-5.1c0.9-1.7,1.9-2.5,3-2.5a1.75,1.75,0,0,1,1.5,1m-18.2,11.9a0.85,0.85,0,0,0,.2-0.6c0-.2,0-0.3-0.1-0.3l-0.5-.1a2.28,2.28,0,0,1-1.1-.3,0.65,0.65,0,0,1-.6-0.5,12.22,12.22,0,0,1,.3-2.6l1.1-5.6c0-.2.8-0.3,2.2-0.3,1.9,0,2.9.1,3.1,0.3l0.2,0.2a2,2,0,0,1,.1.5,4.51,4.51,0,0,1,.1,1.3c0,0.2.2,0.3,0.5,0.3a0.9,0.9,0,0,0,.5-0.1l1.2-6.2a0.59,0.59,0,0,0-.5-0.2,0.76,0.76,0,0,0-.5.2,4.45,4.45,0,0,1-1.3,2,6.73,6.73,0,0,1-2.7.3h-2.4a0.37,0.37,0,0,1-.3-0.1,0.1,0.1,0,0,1-.1-0.1l1-5.7a14.14,14.14,0,0,1,.6-2.2c0.1-.3.9-0.4,2.5-0.4H262a4.77,4.77,0,0,1,2.4.5,2.62,2.62,0,0,1,.8,2.3c0,0.2.1,0.2,0.4,0.2a0.85,0.85,0,0,0,.6-0.2v-4.5c-1.1,0-2.8,0-4.9.1s-3.6.1-4.5,0.1c-1.3,0-2.5,0-3.5-.1a0.84,0.84,0,0,0-.2.7c0,0.1,0,.1.1,0.1a3.63,3.63,0,0,1,1.1.3c0.5,0.2.7,0.3,0.7,0.5a17.31,17.31,0,0,1-.4,3l-2.3,12.1a15.09,15.09,0,0,1-.8,3,1.68,1.68,0,0,1-1,.6,4.91,4.91,0,0,1-1.2.3c-0.1,0-.2.2-0.2,0.6v0.3l3.6-.2a14.3,14.3,0,0,0,4,.5m-26.5-13.1a7.58,7.58,0,0,0-1.6,1.7,1.42,1.42,0,0,0,.2.4,1.24,1.24,0,0,0,.2.3,3.81,3.81,0,0,1,.5-0.6l0.4-.4a1.76,1.76,0,0,1,.5-0.4,0.76,0.76,0,0,1,.4-0.1c0.2,0,.3.3,0.3,0.8,0,0.1-.1.5-0.2,1.3l-1.9,10a3.75,3.75,0,0,0,1.1.1,3.08,3.08,0,0,0,1-.1l0.6-2.5a15,15,0,0,1,2.9-6.3c1.5-2,2.6-2.9,3.3-2.9,0.4,0,.6.5,0.6,1.4a16.23,16.23,0,0,1-.2,1.8l-1.1,5.4a6.63,6.63,0,0,0-.2,1.7,2.13,2.13,0,0,0,.3,1.2,1,1,0,0,0,.8.5,3.45,3.45,0,0,0,2.3-1.2,9.68,9.68,0,0,0,1.8-1.9,1.42,1.42,0,0,0-.2-0.4,1.24,1.24,0,0,0-.2-0.3l-0.2.2-0.4.4-0.5.5a2.09,2.09,0,0,1-.6.4,1.06,1.06,0,0,1-.5.2c-0.2,0-.3-0.3-0.3-0.8a2,2,0,0,1,.1-0.8l1.1-5a18.22,18.22,0,0,0,.5-3.5c0-1.4-.5-2.1-1.6-2.1a4.27,4.27,0,0,0-2.5,1.5c-1,1-1.9,2-2.7,2.9s-1.2,1.6-1.4,2l0.6-3a12.77,12.77,0,0,0,.2-1.7,2.13,2.13,0,0,0-.3-1.2,1,1,0,0,0-.8-0.5,2.67,2.67,0,0,0-2.3,1m-6.5-7.4a2.11,2.11,0,0,0-.5,1.3,1.69,1.69,0,0,0,.3,1,0.91,0.91,0,0,0,.8.4,1.76,1.76,0,0,0,1.3-.6,2.17,2.17,0,0,0,.5-1.4,1.61,1.61,0,0,0-.3-0.9,0.91,0.91,0,0,0-.8-0.4,1.49,1.49,0,0,0-1.3.6m-1.8,7.4a7.58,7.58,0,0,0-1.6,1.7,1.42,1.42,0,0,0,.2.4,1.24,1.24,0,0,0,.2.3l0.2-.2a1.51,1.51,0,0,1,.4-0.4l0.4-.4a1.76,1.76,0,0,1,.5-0.4,0.76,0.76,0,0,1,.4-0.1c0.2,0,.3.3,0.3,0.8,0,0.2-.1.6-0.2,1.3l-1.3,6.8a6.63,6.63,0,0,0-.2,1.7,2.13,2.13,0,0,0,.3,1.2,1,1,0,0,0,.8.5,3.45,3.45,0,0,0,2.3-1.2,9.68,9.68,0,0,0,1.8-1.9,1.42,1.42,0,0,0-.2-0.4,1.24,1.24,0,0,0-.2-0.3l-0.2.2-0.4.4-0.5.5a2.09,2.09,0,0,1-.6.4,1.06,1.06,0,0,1-.5.2c-0.2,0-.3-0.3-0.3-0.8a2,2,0,0,1,.1-0.8l1.4-7.3a14.94,14.94,0,0,0,.2-1.7,2.13,2.13,0,0,0-.3-1.2,1,1,0,0,0-.8-0.5,3.74,3.74,0,0,0-2.2,1.2m-15.5,4a16.55,16.55,0,0,1-1.9,4.9c-1,1.6-1.8,2.4-2.6,2.4-1.1,0-1.7-1-1.7-3.1a8.92,8.92,0,0,1,1.8-5.3c1.2-1.7,2.5-2.5,3.8-2.5a1.05,1.05,0,0,1,.9.5,1.38,1.38,0,0,1,.1,1.1Zm-5.6-1.9a9.74,9.74,0,0,0-3,6.7,6.21,6.21,0,0,0,.8,3.1,2.45,2.45,0,0,0,2.3,1.3,3,3,0,0,0,1.9-.9,6.48,6.48,0,0,0,1.6-1.8,14,14,0,0,0,1-1.6v0.2a0.49,0.49,0,0,1-.1.3c0,0.1-.1.3-0.1,0.4a6.63,6.63,0,0,0-.2,1.7,2.13,2.13,0,0,0,.3,1.2,1,1,0,0,0,.8.5,3.67,3.67,0,0,0,2.3-1.2,9.68,9.68,0,0,0,1.8-1.9,1.42,1.42,0,0,0-.2-0.4,1.24,1.24,0,0,0-.2-0.3l-0.2.2-0.4.4-0.5.5a2.09,2.09,0,0,1-.6.4,1.06,1.06,0,0,1-.5.2c-0.2,0-.3-0.3-0.3-0.8a2,2,0,0,1,.1-0.8l3.1-15.7,0.5-2.4a0.85,0.85,0,0,0-.2-0.6,14.28,14.28,0,0,1-4.2.9,0.86,0.86,0,0,0-.3.6c0,0.1,0,.2.1,0.2,1.3,0,2,.2,2,0.6a2.77,2.77,0,0,1-.1.9l-0.9,4.8H207a8.93,8.93,0,0,0-6.2,3.3m-13.9-.2a9.89,9.89,0,0,0-2.3,6.4,5.34,5.34,0,0,0,1,3.6,3.84,3.84,0,0,0,3,1.3c1.6,0,3.3-1,4.8-3a10,10,0,0,0,2.4-6.3,5.82,5.82,0,0,0-1.1-3.7,3.54,3.54,0,0,0-3-1.3q-2.4,0-4.8,3m5.9-.7a7.2,7.2,0,0,1,.5,2.9,10.74,10.74,0,0,1-1.3,5.1c-0.8,1.7-1.8,2.5-2.9,2.5a1.68,1.68,0,0,1-1.5-1,6,6,0,0,1-.6-2.9,10.74,10.74,0,0,1,1.3-5.1c0.9-1.7,1.9-2.5,3-2.5a1.75,1.75,0,0,1,1.5,1m-19.1.7a9.89,9.89,0,0,0-2.3,6.4,5.34,5.34,0,0,0,1,3.6,3.84,3.84,0,0,0,3,1.3c1.6,0,3.3-1,4.8-3a10,10,0,0,0,2.4-6.3,5.82,5.82,0,0,0-1.1-3.7,3.54,3.54,0,0,0-3-1.3q-2.55,0-4.8,3m5.8-.7a7.2,7.2,0,0,1,.5,2.9,10.74,10.74,0,0,1-1.3,5.1c-0.8,1.7-1.8,2.5-2.9,2.5a1.68,1.68,0,0,1-1.5-1,6,6,0,0,1-.6-2.9,10.74,10.74,0,0,1,1.3-5.1c0.9-1.7,1.9-2.5,3-2.5a1.64,1.64,0,0,1,1.5,1m-18.2,11.9a0.85,0.85,0,0,0,.2-0.6c0-.2,0-0.3-0.1-0.3l-0.6-.1a2.28,2.28,0,0,1-1.1-.3,0.65,0.65,0,0,1-.6-0.5,12.22,12.22,0,0,1,.3-2.6l1.1-5.6c0-.2.8-0.3,2.2-0.3,1.9,0,2.9.1,3.1,0.3l0.2,0.2a2,2,0,0,1,.1.5,4.51,4.51,0,0,1,.1,1.3c0,0.2.2,0.3,0.5,0.3a0.9,0.9,0,0,0,.5-0.1l1.2-6.2a0.59,0.59,0,0,0-.5-0.2,0.76,0.76,0,0,0-.5.2,4.45,4.45,0,0,1-1.3,2,7.08,7.08,0,0,1-2.7.3H161a0.37,0.37,0,0,1-.3-0.1,0.1,0.1,0,0,1-.1-0.1l1-5.7a14.14,14.14,0,0,1,.6-2.2c0.1-.3.9-0.4,2.5-0.4h1.8a4.77,4.77,0,0,1,2.4.5,2.62,2.62,0,0,1,.8,2.3c0,0.2.1,0.2,0.4,0.2a0.85,0.85,0,0,0,.6-0.2v-4.5c-1.1,0-2.8,0-4.9.1s-3.6.1-4.5,0.1c-1.3,0-2.5,0-3.5-.1a0.84,0.84,0,0,0-.2.7c0,0.1,0,.1.1,0.1a3.63,3.63,0,0,1,1.1.3c0.5,0.2.7,0.3,0.7,0.5a17.31,17.31,0,0,1-.4,3l-2.3,12.1a15.09,15.09,0,0,1-.8,3,1.68,1.68,0,0,1-1,.6,4.91,4.91,0,0,1-1.2.3c-0.1,0-.2.2-0.2,0.6v0.3l3.6-.2a16.57,16.57,0,0,0,4.1.5" transform="translate(-46.6 -118.85)"/>
    </g>
  </g>
  <polygon id="_Path_10" data-name="&lt;Path&gt;" points="89.6 443.3 185.2 443.3 307.4 374.5 211.8 374.5 89.6 443.3"/>
  <path id="_Path_11" data-name="&lt;Path&gt;" d="M156.3,405.75" transform="translate(-46.6 -118.85)"/>
  <polygon id="_Path_12" data-name="&lt;Path&gt;" points="83.7 362.5 179.3 362.5 301.5 293.7 205.9 293.7 83.7 362.5"/>
  <line class="cls-1" x1="276.86" y1="205.8" x2="385.8" y2="205.8"/>
  <line class="cls-1" x1="201.25" y1="328.1" x2="385.8" y2="328.1"/>
  <line class="cls-1" x1="201.25" y1="408.9" x2="385.8" y2="408.9"/>
  <text class="cls-2" transform="translate(422.4 415.39)">Illuminate is a core data engine that holds a database of information about <tspan x="0" y="28.8">food. Each food has a fingerprint, which can be used to compare to other foods. </tspan><tspan x="0" y="57.6">This is a database that will be available for other people to build on top of.</tspan></text>
  <text class="cls-3" transform="translate(422.4 277.84)"><tspan class="cls-4">Platforms can be built on top of the Illuminate engine, including APIs, developer kits, <tspan x="0" y="28.8">modules and more. An example might be Target integrating the Illuminate engine to </tspan><tspan x="0" y="57.6">power their backend produce decisions based on market prices and food quality.</tspan></tspan><tspan class="cls-5"><tspan x="0" y="86.4">E</tspan><tspan x="13.9" y="86.4">xamples: CENTERS</tspan><tspan x="204.83" y="86.4">T</tspan><tspan x="215.68" y="86.4">A</tspan><tspan class="cls-6" x="231.47" y="86.4">GE,  SEASO</tspan><tspan x="354.62" y="86.4">N</tspan><tspan x="373" y="86.4">, REROUTE</tspan></tspan></text>
  <text class="cls-3" transform="translate(422.4 151.94)"><tspan class="cls-4">Applications give way to consumer facing concepts, allowing for personalized features <tspan x="0" y="28.8">like customized nutrition, real time produce recommendations, dynamic pricing, and </tspan><tspan x="0" y="57.6">more. This portfolio of applications revolutionizes the food system. </tspan></tspan><tspan class="cls-5"><tspan x="0" y="86.4">E</tspan><tspan x="13.9" y="86.4">xamples: TE</tspan><tspan x="126.55" y="86.4">N</tspan><tspan x="144.93" y="86.4">, HONEY STICK, NUTRICEIPT</tspan></tspan></text>
</svg>
